<svg id="Layer_1" data-name="Layer 1" xmlns="http://www.w3.org/2000/svg" viewBox="0 0 55.84 55.89"><title>logo</title><path d="M43.66,52.84a26.42,26.42,0,0,1-6.54,2.88c0,.06-.13.06-.19.11a28.07,28.07,0,0,1-5.17.94,30.36,30.36,0,0,1-7.3-.24c-1.09-.18-2.17-.42-3.24-.69-.05-.05-.14-.05-.18-.12a25.7,25.7,0,0,1-3.44-1.24c-.67-.31-1.32-.66-2-1a7.09,7.09,0,0,1-1.06-.58c-.72-.55-1.56-.93-2.23-1.54,0-.07-.13-.06-.17-.13-.55-.43-1.12-.83-1.63-1.3-.33-.3-.62-.64-1-.92-.59-.48-1-1.12-1.53-1.65a18.65,18.65,0,0,1-1.51-1.87,27,27,0,0,1-1.57-2.4c-.42-.68-.78-1.4-1.13-2.12A27.26,27.26,0,0,1,1.88,35.4a26,26,0,0,1-.54-2.92,14.13,14.13,0,0,1-.16-2c0-1.39-.07-2.78.06-4.16A27,27,0,0,1,1.73,23c.05-.05.06-.14.11-.19a16.44,16.44,0,0,1,.53-2.14c.25-.82.52-1.62.83-2.42.1-.27.28-.52.39-.79a15.51,15.51,0,0,1,1.13-2.3,25.38,25.38,0,0,1,1.43-2.25c.52-.65,1-1.36,1.52-2A2,2,0,0,0,8,10.6a37.32,37.32,0,0,1,2.76-2.76c0-.06.14-.05.18-.13A13.19,13.19,0,0,1,12.58,6.4c.11,0,.14-.18.24-.24.68-.48,1.4-.89,2.1-1.32a.79.79,0,0,1,.3-.23L16.52,4c.4-.19.82-.34,1.2-.55a17.31,17.31,0,0,1,3-1.14c.45-.15.92-.24,1.38-.39a16.6,16.6,0,0,1,3.33-.65,29.68,29.68,0,0,1,7.54,0c.88.12,1.75.28,2.62.46.05.06.13.06.19.11a26,26,0,0,1,4.31,1.39c0,.06.14.06.18.12a19,19,0,0,1,2.28,1.09c.84.48,1.67,1,2.47,1.54.53.37,1,.81,1.53,1.16S47.51,8,48,8.39A20.07,20.07,0,0,1,49.67,10,20.11,20.11,0,0,1,51,11.66a26.44,26.44,0,0,1,1.63,2.29,27.5,27.5,0,0,1,1.55,2.76c0,.06.05.14.11.19a20.78,20.78,0,0,1,1.05,2.56A24,24,0,0,1,56.61,24a32.54,32.54,0,0,1,.38,3.8,29.41,29.41,0,0,1-.36,5.9,19.81,19.81,0,0,1-.78,3.4,30.33,30.33,0,0,1-1.32,3.46c-.51,1-1,2.07-1.63,3.06a.87.87,0,0,1-.18.24,27.33,27.33,0,0,1-8.89,8.81C43.8,52.79,43.7,52.78,43.66,52.84Z" transform="translate(-1.17 -1)" style="fill:#336565"/><path d="M8,10.6a.44.44,0,0,1-.3.36C7.68,10.77,7.83,10.7,8,10.6Z" transform="translate(-1.17 -1)" style="fill:#aec3c3"/><path d="M52.72,43.9c0-.14.09-.18.18-.24C52.91,43.79,52.87,43.89,52.72,43.9Z" transform="translate(-1.17 -1)" style="fill:#a9c0bf"/><path d="M15.22,4.61c-.1.08-.17.2-.3.23C14.94,4.65,15.09,4.64,15.22,4.61Z" transform="translate(-1.17 -1)" style="fill:#9eb8b7"/><path d="M12.82,6.16c-.06.1-.09.23-.24.24C12.64,6.3,12.67,6.16,12.82,6.16Z" transform="translate(-1.17 -1)" style="fill:#afc3c2"/><path d="M35.8,1.84c-.09,0-.18,0-.19-.11S35.78,1.73,35.8,1.84Z" transform="translate(-1.17 -1)" style="fill:#a3bbba"/><path d="M40.3,3.34c-.09,0-.17,0-.18-.12S40.29,3.23,40.3,3.34Z" transform="translate(-1.17 -1)" style="fill:#a1bab9"/><path d="M10.89,7.71c0,.13-.07.15-.18.13S10.81,7.72,10.89,7.71Z" transform="translate(-1.17 -1)" style="fill:#7d9f9e"/><path d="M54.34,16.9c-.15,0-.11-.11-.11-.19C54.38,16.7,54.33,16.82,54.34,16.9Z" transform="translate(-1.17 -1)" style="fill:#7b9d9d"/><path d="M1.83,22.83c0,.09,0,.18-.11.19S1.69,22.83,1.83,22.83Z" transform="translate(-1.17 -1)" style="fill:#769a99"/><path d="M12.16,51.22c.09,0,.18,0,.17.13S12.15,51.35,12.16,51.22Z" transform="translate(-1.17 -1)" style="fill:#779b9a"/><path d="M43.66,52.84c0-.12.07-.14.16-.13S43.75,52.83,43.66,52.84Z" transform="translate(-1.17 -1)" style="fill:#a1b9b9"/><path d="M21,55.72c.08,0,.18,0,.18.12S21.06,55.83,21,55.72Z" transform="translate(-1.17 -1)" style="fill:#a2bab9"/><path d="M36.93,55.83c0-.11.1-.12.19-.11S37,55.85,36.93,55.83Z" transform="translate(-1.17 -1)" style="fill:#b3c7c6"/><path d="M35.92,20.91A7.81,7.81,0,0,0,37,22.05c.54.53,1.09,1,1.65,1.55a.38.38,0,0,1,.11.32q0,2.67,0,5.33a.53.53,0,0,1-.4.09H36.78c-.31,0-.34,0-.34.35s0,.52,0,.78,0,.26-.11.36a1.54,1.54,0,0,1-.82-.5,4.56,4.56,0,0,0-1-.67c-.05-.32-.3-.34-.55-.35-.52-.29-1-.7-1.45-1A1.37,1.37,0,0,0,32.1,28,6.09,6.09,0,0,1,31,27.25c-.5-.44-1.1-.73-1.61-1.15a.21.21,0,0,0-.27,0q-.87.56-1.68,1.2a9.48,9.48,0,0,1-.9.64,6.63,6.63,0,0,0-1.33.89,2.77,2.77,0,0,1-.7.49.53.53,0,0,0-.58.31L21.73,31.2a.07.07,0,0,1-.1,0,4.65,4.65,0,0,0-.79-.93,2.5,2.5,0,0,0-1-.65c-.09,0-.2,0-.23-.16q0-3.48-.06-7a.49.49,0,0,1,.27-.49,9.82,9.82,0,0,0,1-.76,22,22,0,0,1,1.83-1.29.35.35,0,0,0,.19-.27,9.87,9.87,0,0,1,1.3-1c.3-.2.58-.43.86-.65.44-.35.94-.61,1.38-1,.78-.62,1.6-1.19,2.43-1.75.15-.11.28-.26.44-.36a.32.32,0,0,1,.48,0c.54.66,1.25,1.14,1.83,1.77.38.4.82.75,1.22,1.14.61.6,1.28,1.14,1.86,1.77.3.33.68.56,1,.89A2.49,2.49,0,0,1,35.92,20.91Z" transform="translate(-1.17 -1)" style="fill:#cbcb33"/><path d="M19.65,29.43a4,4,0,0,1,2.08,1.78,5.94,5.94,0,0,1,.43,1.55c0,.24,0,.35-.29.35-.73,0-1.46.05-2.19.09-.15,0-.23,0-.23-.18a.27.27,0,0,0,0-.06c-.32-1.14-.76-1.53-1.81-1.65a3.56,3.56,0,0,0-2.3.35,1,1,0,0,0-.59,1,1.06,1.06,0,0,0,.6,1,14.08,14.08,0,0,0,2.88.89,8.68,8.68,0,0,1,3.14,1.36,3,3,0,0,1,1,1.59,4.23,4.23,0,0,1-.78,4,4.27,4.27,0,0,1-.68.53,4.42,4.42,0,0,1-2.37.87,8.6,8.6,0,0,1-3.62-.22,4.14,4.14,0,0,1-2.2-1.51,5.24,5.24,0,0,1-1-2.57c0-.14,0-.15.14-.16l2.33-.21c.13,0,.15,0,.17.14a6.29,6.29,0,0,0,.24.77,2.35,2.35,0,0,0,2.14,1.51,5,5,0,0,0,1.58-.07,2.13,2.13,0,0,0,1.53-1.17,1.41,1.41,0,0,0-.77-1.75,12.37,12.37,0,0,0-2.26-.66,10,10,0,0,1-1.86-.55,5.33,5.33,0,0,1-1.76-1.09,3.73,3.73,0,0,1-.85-1.58c0-.06-.05-.14-.1-.2a3.22,3.22,0,0,1,0-1.38c.05-.05.06-.13.1-.2A3.16,3.16,0,0,1,13,30.54a3.94,3.94,0,0,1,2.71-1.4A8.24,8.24,0,0,1,19.65,29.43Z" transform="translate(-1.17 -1)" style="fill:#fdfdfd"/><path d="M36.33,30.84c0-.45,0-.9,0-1.35,0-.19.06-.24.24-.23h2.22c1.24,0,2.48,0,3.72.05a4.43,4.43,0,0,1,2.35.58A3.8,3.8,0,0,1,46.53,33a4.28,4.28,0,0,1-1,3.33,3.49,3.49,0,0,1-2.05,1.08,27.1,27.1,0,0,1-4.07.17c-.41,0-.41,0-.41.41,0,1.46,0,2.92,0,4.38,0,.28-.08.33-.33.32q-1,0-2,0c-.25,0-.31-.07-.31-.31q0-5.58,0-11.15C36.34,31.1,36.33,31,36.33,30.84Z" transform="translate(-1.17 -1)" style="fill:#fdfdfd"/><path d="M35.92,20.91c-.6-.55-1.2-1.1-1.78-1.67s-1.43-1.41-2.19-2.06a23.09,23.09,0,0,0-1.79-1.65,2.35,2.35,0,0,1-.4-.44.28.28,0,0,0-.45,0c-.59.45-1.19.89-1.79,1.33-.81.6-1.65,1.16-2.45,1.78-.65.49-1.34.92-2,1.43-.05,0-.1.1-.18.09,0-.72,0-1.44,0-2.15,0-1,0-2,0-3a.44.44,0,0,1,.18-.37c.71-.63,1.55-1.07,2.28-1.67.55-.46,1.16-.83,1.73-1.26.78-.58,1.55-1.17,2.37-1.7a.27.27,0,0,1,.4,0c.6.53,1.17,1.11,1.76,1.65q1.25,1.14,2.47,2.33c.56.55,1.17,1,1.72,1.61a.57.57,0,0,1,.19.42Q35.92,18.19,35.92,20.91Z" transform="translate(-1.17 -1)" style="fill:#cbfecb"/><path d="M33.94,29.25h.18c.42,0,.42,0,.42.41s0,1,0,1.49c0,.24,0,.32-.3.32-.72,0-1.43,0-2.15,0-.23.15-.49.07-.73.09h-.27c-.31,0-.34,0-.35.35,0,1,0,2,0,3,0,.63,0,1.26,0,1.89a.54.54,0,0,1-.1.42c-.08.11,0,.23,0,.35,0,1.61,0,3.22,0,4.82,0,.22,0,.29-.28.29-.72,0-1.44,0-2.16,0-.22,0-.26-.07-.26-.27,0-1.61,0-3.22,0-4.82,0-.12,0-.24,0-.36a.72.72,0,0,1-.09-.49q0-2.35,0-4.71c0-.46,0-.46-.47-.47a1.46,1.46,0,0,1-.76-.08c-.78-.05-1.56,0-2.34,0-.25,0-.32-.07-.31-.32,0-.51,0-1,0-1.53,0-.31.1-.42.4-.37a1.11,1.11,0,0,0,.23,0,2.88,2.88,0,0,1,1.06-.08c.31,0,.61,0,.92,0q2.81,0,5.62,0c.48,0,1,0,1.43,0A1,1,0,0,1,33.94,29.25Z" transform="translate(-1.17 -1)" style="fill:#fdfdfd"/><path d="M39.36,45.33a1.06,1.06,0,0,1,.61,1.1c0,.68-.23.88-1.18,1.22.77.44,1,1.25,1.54,1.94h-1c-.1,0-.14-.06-.18-.13-.26-.42-.57-.82-.81-1.26a1,1,0,0,0-1-.48c-.16,0-.11.14-.12.23,0,.45,0,.9,0,1.35,0,.22,0,.3-.28.29-.55,0-.55,0-.55-.55,0-1.22,0-2.44,0-3.66,0-.23.06-.29.29-.28.74,0,1.48,0,2.21,0a.58.58,0,0,1,.29.07C39.21,45.28,39.29,45.29,39.36,45.33Z" transform="translate(-1.17 -1)" style="fill:#fcfcfc"/><path d="M21.15,49.06c-.19-.29-.4-.57-.56-.88a.93.93,0,0,0-1-.46c-.16,0-.12.13-.12.22,0,.47,0,.94,0,1.41,0,.19-.06.23-.24.24-.59,0-.59,0-.59-.57,0-1.21,0-2.42,0-3.63,0-.22,0-.3.28-.29.75,0,1.5,0,2.24,0a1.24,1.24,0,0,1,1.08,1.3c-.07.69-.26.9-1.17,1.19.81.41,1,1.27,1.5,1.89-.57.17-1,.07-1.2-.29C21.28,49.18,21.21,49.13,21.15,49.06Z" transform="translate(-1.17 -1)" style="fill:#fcfcfc"/><path d="M32.18,47.36c0-.66,0-1.32,0-2,0-.21.05-.27.27-.27.92,0,1.84,0,2.76,0,.19,0,.26,0,.25.25,0,.51,0,.51-.49.51s-1.14,0-1.71,0c-.21,0-.27.07-.25.26s-.11.6.06.75.48,0,.73,0c.41,0,.82,0,1.23,0,.22,0,.29.07.26.27a.66.66,0,0,0,0,.18c0,.19,0,.26-.24.26-.59,0-1.18,0-1.77,0-.22,0-.28.07-.26.27a5.76,5.76,0,0,1,0,.75c0,.21.05.27.26.27.66,0,1.32,0,2,0,.22,0,.3.05.29.28,0,.5,0,.42-.41.42-.87,0-1.74,0-2.61,0-.29,0-.35-.09-.34-.35C32.19,48.62,32.18,48,32.18,47.36Z" transform="translate(-1.17 -1)" style="fill:#fcfcfc"/><path d="M18.05,49.59h-.77c-.12,0-.14-.08-.18-.16-.11-.25-.11-.59-.34-.74s-.58,0-.88-.06-.52,0-.78,0-.23,0-.26.18a1.11,1.11,0,0,1-.05.14c-.24.67-.24.66-1,.64-.17,0-.22,0-.14-.2.6-1.2.95-2.51,1.46-3.74.06-.15.19-.27.22-.44s.11-.09.19-.09c.67,0,.64,0,.92.58.52,1.15.95,2.34,1.41,3.51Z" transform="translate(-1.17 -1)" style="fill:#fcfcfc"/><path d="M31.19,47.36c0,.67,0,1.34,0,2,0,.16,0,.22-.22.23-.62,0-.62,0-.62-.6,0-.39,0-.78,0-1.17,0-.17-.05-.22-.22-.22H28.7c-.16,0-.21.05-.2.21,0,.51,0,1,0,1.53,0,.2-.06.25-.25.25-.57,0-.57,0-.57-.56,0-1.21,0-2.42,0-3.63,0-.23.05-.31.29-.3.53,0,.53,0,.53.54,0,.34,0,.68,0,1s.06.25.26.25c.46,0,.92,0,1.38,0,.19,0,.23-.06.23-.24,0-.45,0-.9,0-1.35,0-.17.05-.22.22-.22.61,0,.61,0,.61.61S31.19,46.81,31.19,47.36Z" transform="translate(-1.17 -1)" style="fill:#fcfcfc"/><path d="M30.63,37.24q0-2.76,0-5.52c0-.18,0-.25.24-.24.41,0,.82,0,1.23,0,0,1.81,0,3.61,0,5.42,0,.28-.08.36-.35.34S31,37.24,30.63,37.24Z" transform="translate(-1.17 -1)" style="fill:#93867e"/><path d="M26.55,31.49c.34,0,.68,0,1,0s.32.05.32.31c0,1.35,0,2.7,0,4,0,.47,0,.94,0,1.41-.33,0-.66,0-1,0s-.34-.06-.34-.33c0-1.6,0-3.2,0-4.8C26.56,31.91,26.55,31.7,26.55,31.49Z" transform="translate(-1.17 -1)" style="fill:#93867e"/><path d="M23,47a2,2,0,0,1,1.13-1.78,1.93,1.93,0,0,1,1.54-.11,1.68,1.68,0,0,1,1.08,1c.07.16,0,.24-.14.26l-.12,0c-.24,0-.45.16-.65-.19a1,1,0,0,0-1.16-.37,1.05,1.05,0,0,0-.78,1,4.35,4.35,0,0,0,.1,1.36,1.06,1.06,0,0,0,1.65.42.94.94,0,0,0,.34-.54c0-.15.09-.17.22-.12l.17.05c.5.14.51.17.28.64a1.8,1.8,0,0,1-1.9.88C23.45,49.42,23,48.53,23,47Z" transform="translate(-1.17 -1)" style="fill:#fcfcfc"/><path d="M40.19,45.13l.05,0a2.54,2.54,0,0,1,.86,0c.26.1.3.46.45.7a6.47,6.47,0,0,1,.55,1c0,.05,0,.11.12.1a.17.17,0,0,0,.13-.1c.28-.52.56-1,.84-1.55a.22.22,0,0,1,.23-.13h.8a1.57,1.57,0,0,1-.4.74c-.47.55-.72,1.23-1.14,1.81a.46.46,0,0,0,0,.29c0,.47,0,.94,0,1.41,0,.19-.05.23-.24.24-.65,0-.65,0-.65-.65a3.06,3.06,0,0,0-.68-2.39,9.42,9.42,0,0,1-.88-1.37A.21.21,0,0,1,40.19,45.13Z" transform="translate(-1.17 -1)" style="fill:#fcfcfc"/><path d="M39.36,45.33c-.09,0-.19,0-.2-.11S39.35,45.19,39.36,45.33Z" transform="translate(-1.17 -1)" style="fill:#c5d3d3"/><path d="M12.23,33.52c.12,0,.12.1.1.2S12.22,33.61,12.23,33.52Z" transform="translate(-1.17 -1)" style="fill:#bacccb"/><path d="M21.15,49.06c.07,0,.19.05.18.18S21.18,49.16,21.15,49.06Z" transform="translate(-1.17 -1)" style="fill:#a9bfbe"/><path d="M12.33,31.95c0,.09,0,.18-.1.2S12.2,32,12.33,31.95Z" transform="translate(-1.17 -1)" style="fill:#bccdcc"/><path d="M32.14,29.25H26.49a2.18,2.18,0,0,1,0-1.37c.85-.61,1.67-1.27,2.55-1.85a.29.29,0,0,1,.39,0c.69.53,1.45,1,2.11,1.55a5.31,5.31,0,0,0,.59.4A1.74,1.74,0,0,1,32.14,29.25Z" transform="translate(-1.17 -1)" style="fill:#93867e"/><path d="M26.5,27.88v1.37h-2a17.08,17.08,0,0,1,1.75-1.31C26.35,27.9,26.41,27.85,26.5,27.88Z" transform="translate(-1.17 -1)" style="fill:#267c6c"/><path d="M32.14,29.25V28c.06-.07.11,0,.16,0l1.65,1.24Z" transform="translate(-1.17 -1)" style="fill:#267c6c"/><path d="M39,33.43q0-.87,0-1.74c0-.11,0-.22.16-.22a25.58,25.58,0,0,1,3.05.09,1.8,1.8,0,0,1,1.54,1.55,1.87,1.87,0,0,1-1.36,2.14,12,12,0,0,1-1.34.12c-.6,0-1.2,0-1.8,0-.22,0-.26-.08-.26-.27C39,34.55,39,34,39,33.43Z" transform="translate(-1.17 -1)" style="fill:#267c6c"/><path d="M37.91,47c-.68,0-.68,0-.68-.65,0-.49,0-.49.48-.49h.75a.52.52,0,0,1,.57.49.58.58,0,0,1-.5.62A4.48,4.48,0,0,1,37.91,47Z" transform="translate(-1.17 -1)" style="fill:#267c6c"/><path d="M20.18,45.88h.54a.63.63,0,0,1,.63.53.69.69,0,0,1-.56.58,9.17,9.17,0,0,1-1.16,0c-.13,0-.15-.06-.15-.16s0-.18,0-.27C19.47,45.88,19.47,45.88,20.18,45.88Z" transform="translate(-1.17 -1)" style="fill:#267c6c"/><path d="M15.21,47.84a15.34,15.34,0,0,0,.64-1.63l.58,1.63Z" transform="translate(-1.17 -1)" style="fill:#277c6c"/></svg>